Normalized EMG Linear Envelopes
nRows=59
nColumns=17

endheader
time	        VM	        VL	        RF	       GRA	        TA	   ADDLONG	   SEMIMEM	      BFLH	        GM	        GL	       TFL	   GLUTMAX	   GLUTMED	      PIRI	    OBTINT	        QF	
1.4825	  0.007460	  0.012667	  0.024827	  0.021623	  0.110649	  0.161511	  0.000000	  0.000194	  0.011299	  0.004728	  0.004263	  0.066263	  0.388118	  0.869772	  0.474868	  0.374287	
1.483	  0.007461	  0.012693	  0.024483	  0.021553	  0.110510	  0.162516	  0.000000	  0.000686	  0.011303	  0.004722	  0.004247	  0.066300	  0.383348	  0.866729	  0.471022	  0.375802	
1.4835	  0.007463	  0.012721	  0.024148	  0.021488	  0.110370	  0.163504	  0.000000	  0.001199	  0.011308	  0.004716	  0.004232	  0.066342	  0.378563	  0.863583	  0.467150	  0.377271	
1.484	  0.007467	  0.012753	  0.023821	  0.021429	  0.110230	  0.164474	  0.000000	  0.001734	  0.011312	  0.004710	  0.004220	  0.066389	  0.373767	  0.860331	  0.463257	  0.378692	
1.4845	  0.007471	  0.012788	  0.023501	  0.021374	  0.110090	  0.165427	  0.000000	  0.002292	  0.011317	  0.004703	  0.004209	  0.066439	  0.368961	  0.856969	  0.459344	  0.380065	
1.485	  0.007477	  0.012825	  0.023189	  0.021324	  0.109949	  0.166360	  0.000000	  0.002872	  0.011322	  0.004697	  0.004200	  0.066495	  0.364151	  0.853492	  0.455417	  0.381388	
1.4855	  0.007485	  0.012866	  0.022885	  0.021280	  0.109807	  0.167274	  0.000000	  0.003475	  0.011327	  0.004690	  0.004193	  0.066555	  0.359338	  0.849898	  0.451479	  0.382660	
1.486	  0.007494	  0.012910	  0.022587	  0.021240	  0.109663	  0.168168	  0.000000	  0.004101	  0.011332	  0.004684	  0.004188	  0.066619	  0.354526	  0.846182	  0.447532	  0.383878	
1.4865	  0.007504	  0.012957	  0.022298	  0.021205	  0.109518	  0.169041	  0.000000	  0.004752	  0.011337	  0.004677	  0.004185	  0.066688	  0.349717	  0.842339	  0.443581	  0.385042	
1.487	  0.007515	  0.013007	  0.022015	  0.021175	  0.109372	  0.169892	  0.000000	  0.005427	  0.011343	  0.004671	  0.004183	  0.066762	  0.344914	  0.838366	  0.439628	  0.386150	
1.4875	  0.007528	  0.013059	  0.021740	  0.021150	  0.109223	  0.170722	  0.000000	  0.006127	  0.011348	  0.004664	  0.004183	  0.066841	  0.340121	  0.834258	  0.435676	  0.387200	
1.488	  0.007542	  0.013115	  0.021472	  0.021130	  0.109072	  0.171529	  0.000000	  0.006852	  0.011353	  0.004657	  0.004185	  0.066925	  0.335339	  0.830011	  0.431728	  0.388191	
1.4885	  0.007558	  0.013174	  0.021211	  0.021114	  0.108919	  0.172313	  0.000000	  0.007603	  0.011359	  0.004650	  0.004188	  0.067013	  0.330572	  0.825622	  0.427787	  0.389123	
1.489	  0.007575	  0.013237	  0.020957	  0.021103	  0.108762	  0.173074	  0.000000	  0.008380	  0.011365	  0.004643	  0.004193	  0.067106	  0.325820	  0.821087	  0.423855	  0.389994	
1.4895	  0.007594	  0.013302	  0.020710	  0.021096	  0.108603	  0.173810	  0.000000	  0.009183	  0.011370	  0.004636	  0.004200	  0.067204	  0.321088	  0.816406	  0.419936	  0.390802	
1.49	  0.007614	  0.013370	  0.020469	  0.021094	  0.108440	  0.174522	  0.000284	  0.010013	  0.011376	  0.004629	  0.004208	  0.067306	  0.316377	  0.811576	  0.416031	  0.391548	
1.4905	  0.007636	  0.013442	  0.020236	  0.021096	  0.108273	  0.175209	  0.001176	  0.010871	  0.011382	  0.004621	  0.004218	  0.067414	  0.311689	  0.806598	  0.412142	  0.392231	
1.491	  0.007659	  0.013516	  0.020008	  0.021102	  0.108103	  0.175870	  0.002102	  0.011756	  0.011388	  0.004614	  0.004229	  0.067527	  0.307026	  0.801473	  0.408272	  0.392850	
1.4915	  0.007684	  0.013594	  0.019788	  0.021113	  0.107928	  0.176506	  0.003062	  0.012670	  0.011393	  0.004606	  0.004242	  0.067644	  0.302390	  0.796202	  0.404423	  0.393403	
1.492	  0.007711	  0.013675	  0.019574	  0.021129	  0.107749	  0.177117	  0.004057	  0.013613	  0.011399	  0.004598	  0.004256	  0.067767	  0.297784	  0.790786	  0.400597	  0.393892	
1.4925	  0.007739	  0.013759	  0.019366	  0.021148	  0.107565	  0.177702	  0.005087	  0.014584	  0.011405	  0.004590	  0.004271	  0.067894	  0.293209	  0.785230	  0.396795	  0.394314	
1.493	  0.007769	  0.013847	  0.019165	  0.021172	  0.107376	  0.178263	  0.006153	  0.015585	  0.011410	  0.004582	  0.004288	  0.068027	  0.288666	  0.779537	  0.393019	  0.394671	
1.4935	  0.007800	  0.013938	  0.018970	  0.021201	  0.107181	  0.178799	  0.007257	  0.016616	  0.011416	  0.004574	  0.004307	  0.068164	  0.284158	  0.773711	  0.389270	  0.394963	
1.494	  0.007833	  0.014032	  0.018781	  0.021233	  0.106982	  0.179310	  0.008397	  0.017677	  0.011421	  0.004565	  0.004326	  0.068306	  0.279686	  0.767759	  0.385551	  0.395189	
1.4945	  0.007868	  0.014129	  0.018598	  0.021270	  0.106776	  0.179798	  0.009575	  0.018769	  0.011427	  0.004556	  0.004347	  0.068454	  0.275251	  0.761687	  0.381862	  0.395350	
1.495	  0.007905	  0.014229	  0.018421	  0.021312	  0.106564	  0.180262	  0.010792	  0.019892	  0.011432	  0.004547	  0.004370	  0.068606	  0.270856	  0.755500	  0.378205	  0.395446	
1.4955	  0.007943	  0.014333	  0.018249	  0.021358	  0.106346	  0.180703	  0.012048	  0.021046	  0.011437	  0.004538	  0.004394	  0.068764	  0.266501	  0.749206	  0.374581	  0.395478	
1.496	  0.007983	  0.014440	  0.018084	  0.021408	  0.106121	  0.181121	  0.013344	  0.022233	  0.011442	  0.004529	  0.004419	  0.068926	  0.262188	  0.742809	  0.370990	  0.395446	
1.4965	  0.008025	  0.014550	  0.017924	  0.021462	  0.105889	  0.181516	  0.014680	  0.023452	  0.011446	  0.004519	  0.004445	  0.069094	  0.257919	  0.736317	  0.367434	  0.395351	
1.497	  0.008069	  0.014664	  0.017770	  0.021521	  0.105650	  0.181890	  0.016057	  0.024703	  0.011451	  0.004510	  0.004473	  0.069267	  0.253694	  0.729735	  0.363914	  0.395193	
1.4975	  0.008114	  0.014781	  0.017621	  0.021584	  0.105403	  0.182242	  0.017475	  0.025988	  0.011455	  0.004500	  0.004502	  0.069445	  0.249516	  0.723069	  0.360430	  0.394973	
1.498	  0.008161	  0.014902	  0.017477	  0.021651	  0.105148	  0.182574	  0.018936	  0.027306	  0.011459	  0.004489	  0.004532	  0.069628	  0.245385	  0.716325	  0.356983	  0.394691	
1.4985	  0.008210	  0.015025	  0.017339	  0.021723	  0.104884	  0.182884	  0.020439	  0.028658	  0.011462	  0.004479	  0.004563	  0.069817	  0.241303	  0.709509	  0.353573	  0.394349	
1.499	  0.008261	  0.015153	  0.017206	  0.021800	  0.104612	  0.183175	  0.021985	  0.030044	  0.011466	  0.004468	  0.004596	  0.070011	  0.237272	  0.702625	  0.350201	  0.393948	
1.4995	  0.008314	  0.015283	  0.017078	  0.021880	  0.104331	  0.183446	  0.023576	  0.031465	  0.011469	  0.004458	  0.004630	  0.070211	  0.233292	  0.695680	  0.346867	  0.393489	
1.5	  0.008369	  0.015417	  0.016955	  0.021966	  0.104040	  0.183698	  0.025211	  0.032921	  0.011471	  0.004446	  0.004665	  0.070417	  0.229365	  0.688679	  0.343572	  0.392973	
1.5005	  0.008426	  0.015555	  0.016837	  0.022056	  0.103740	  0.183932	  0.026891	  0.034412	  0.011474	  0.004435	  0.004701	  0.070628	  0.225492	  0.681628	  0.340315	  0.392402	
1.501	  0.008484	  0.015696	  0.016723	  0.022150	  0.103429	  0.184148	  0.028617	  0.035939	  0.011476	  0.004424	  0.004739	  0.070846	  0.221675	  0.674531	  0.337096	  0.391778	
1.5015	  0.008545	  0.015840	  0.016615	  0.022249	  0.103108	  0.184347	  0.030388	  0.037501	  0.011478	  0.004412	  0.004777	  0.071069	  0.217913	  0.667395	  0.333915	  0.391102	
1.502	  0.008608	  0.015988	  0.016511	  0.022352	  0.102776	  0.184529	  0.032207	  0.039100	  0.011479	  0.004400	  0.004817	  0.071299	  0.214209	  0.660224	  0.330773	  0.390375	
1.5025	  0.008672	  0.016140	  0.016412	  0.022460	  0.102433	  0.184696	  0.034073	  0.040736	  0.011480	  0.004388	  0.004857	  0.071535	  0.210562	  0.653023	  0.327668	  0.389598	
1.503	  0.008739	  0.016295	  0.016317	  0.022573	  0.102079	  0.184846	  0.035986	  0.042409	  0.011481	  0.004375	  0.004899	  0.071777	  0.206975	  0.645799	  0.324601	  0.388775	
1.5035	  0.008808	  0.016454	  0.016227	  0.022690	  0.101713	  0.184982	  0.037948	  0.044118	  0.011482	  0.004362	  0.004942	  0.072026	  0.203448	  0.638556	  0.321570	  0.387905	
1.504	  0.008879	  0.016616	  0.016141	  0.022812	  0.101334	  0.185104	  0.039959	  0.045866	  0.011482	  0.004349	  0.004986	  0.072281	  0.199982	  0.631298	  0.318577	  0.386990	
1.5045	  0.008952	  0.016782	  0.016059	  0.022939	  0.100943	  0.185212	  0.042019	  0.047651	  0.011482	  0.004336	  0.005031	  0.072543	  0.196577	  0.624030	  0.315619	  0.386031	
1.505	  0.009027	  0.016952	  0.015981	  0.023070	  0.100540	  0.185307	  0.044129	  0.049474	  0.011481	  0.004322	  0.005076	  0.072812	  0.193236	  0.616758	  0.312697	  0.385030	
1.5055	  0.009104	  0.017126	  0.015907	  0.023206	  0.100124	  0.185390	  0.046290	  0.051336	  0.011480	  0.004308	  0.005123	  0.073087	  0.189957	  0.609485	  0.309810	  0.383988	
1.506	  0.009183	  0.017303	  0.015838	  0.023346	  0.099694	  0.185462	  0.048501	  0.053236	  0.011479	  0.004294	  0.005171	  0.073369	  0.186743	  0.602215	  0.306958	  0.382906	
1.5065	  0.009265	  0.017484	  0.015772	  0.023492	  0.099252	  0.185523	  0.050763	  0.055175	  0.011478	  0.004279	  0.005220	  0.073658	  0.183594	  0.594954	  0.304140	  0.381785	
1.507	  0.009349	  0.017669	  0.015710	  0.023642	  0.098796	  0.185575	  0.053078	  0.057153	  0.011476	  0.004264	  0.005269	  0.073954	  0.180510	  0.587703	  0.301356	  0.380627	
1.5075	  0.009435	  0.017857	  0.015651	  0.023797	  0.098327	  0.185618	  0.055445	  0.059171	  0.011474	  0.004249	  0.005320	  0.074256	  0.177493	  0.580469	  0.298605	  0.379433	
1.508	  0.009524	  0.018050	  0.015597	  0.023957	  0.097845	  0.185653	  0.057864	  0.061227	  0.011471	  0.004233	  0.005371	  0.074566	  0.174542	  0.573253	  0.295888	  0.378205	
1.5085	  0.009614	  0.018247	  0.015545	  0.024122	  0.097349	  0.185681	  0.060336	  0.063323	  0.011468	  0.004217	  0.005424	  0.074882	  0.171658	  0.566059	  0.293203	  0.376944	
1.509	  0.009708	  0.018447	  0.015497	  0.024292	  0.096840	  0.185702	  0.062863	  0.065459	  0.011465	  0.004201	  0.005477	  0.075205	  0.168843	  0.558891	  0.290550	  0.375652	
1.5095	  0.009803	  0.018651	  0.015453	  0.024466	  0.096318	  0.185718	  0.065443	  0.067635	  0.011461	  0.004185	  0.005532	  0.075535	  0.166095	  0.551753	  0.287930	  0.374332	
1.51	  0.009902	  0.018860	  0.015412	  0.024646	  0.095782	  0.185729	  0.068078	  0.069851	  0.011457	  0.004168	  0.005587	  0.075872	  0.163416	  0.544646	  0.285341	  0.372985	
1.5105	  0.010002	  0.019072	  0.015374	  0.024831	  0.095234	  0.185736	  0.070768	  0.072107	  0.011452	  0.004150	  0.005643	  0.076215	  0.160806	  0.537575	  0.282785	  0.371615	
1.511	  0.010105	  0.019289	  0.015339	  0.025020	  0.094672	  0.185740	  0.073513	  0.074403	  0.011447	  0.004132	  0.005700	  0.076566	  0.158266	  0.530542	  0.280260	  0.370223	
1.5115	  0.010211	  0.019509	  0.015307	  0.025215	  0.094098	  0.185741	  0.076315	  0.076740	  0.011442	  0.004114	  0.005758	  0.076923	  0.155794	  0.523549	  0.277767	  0.368813	
